<?xml version="1.0" encoding="utf-8"?>
<!-- Generator: Adobe Illustrator 22.0.1, SVG Export Plug-In . SVG Version: 6.00 Build 0)  -->
<svg version="1.1" id="レイヤー_1" xmlns="http://www.w3.org/2000/svg" xmlns:xlink="http://www.w3.org/1999/xlink" x="0px"
	 y="0px" width="100px" height="81.255px" viewBox="0 0 100 81.255" enable-background="new 0 0 100 81.255" xml:space="preserve">
<path d="M31.448,81.255c37.736,0,58.376-31.264,58.376-58.376c0-0.888,0-1.772-0.06-2.652c4.015-2.904,7.481-6.5,10.236-10.62
	c-3.744,1.659-7.717,2.747-11.784,3.228c4.283-2.564,7.488-6.597,9.02-11.348c-4.027,2.39-8.433,4.074-13.028,4.98
	c-7.77-8.262-20.767-8.661-29.029-0.891c-5.328,5.011-7.589,12.478-5.935,19.603C32.748,24.352,17.378,16.561,6.96,3.743
	c-5.446,9.375-2.664,21.367,6.352,27.388C10.047,31.034,6.853,30.154,4,28.563c0,0.084,0,0.172,0,0.26
	c0.003,9.766,6.887,18.178,16.46,20.112c-3.021,0.824-6.19,0.944-9.264,0.352c2.688,8.358,10.39,14.083,19.168,14.248
	c-7.265,5.71-16.24,8.809-25.48,8.8C3.252,72.332,1.621,72.233,0,72.039c9.383,6.021,20.3,9.215,31.448,9.2"/>
</svg>
