<?xml version="1.0" encoding="utf-8"?><svg xmlns="http://www.w3.org/2000/svg" xmlns:xlink="http://www.w3.org/1999/xlink"><symbol viewBox="0 0 51.878 100" id="icon-facebook" xmlns="http://www.w3.org/2000/svg"><path d="M33.703 100V54.449H49.06l2.301-17.829H33.703V25.264c0-5.15 1.43-8.659 8.815-8.659h9.36V.701C50.249.484 44.662 0 38.162 0 24.588 0 15.299 8.282 15.299 23.498v13.121H0v17.829h15.299V100h18.404z"/></symbol><symbol viewBox="0 0 100 100" id="icon-instagram" xmlns="http://www.w3.org/2000/svg"><path d="M50 9.009c13.351 0 14.932.051 20.204.291 4.875.222 7.522 1.037 9.284 1.722 2.334.907 3.999 1.991 5.749 3.74 1.75 1.75 2.833 3.415 3.74 5.749.685 1.762 1.499 4.409 1.722 9.284.241 5.272.291 6.854.291 20.204s-.05 14.933-.29 20.205c-.222 4.875-1.037 7.522-1.722 9.284-.907 2.334-1.991 3.999-3.74 5.749-1.75 1.75-3.415 2.833-5.749 3.74-1.762.685-4.409 1.499-9.284 1.722-5.272.241-6.853.292-20.205.292s-14.933-.051-20.204-.291c-4.875-.222-7.522-1.037-9.284-1.722-2.334-.907-3.999-1.991-5.749-3.74-1.75-1.75-2.833-3.415-3.74-5.749-.685-1.762-1.499-4.409-1.722-9.284-.241-5.273-.292-6.854-.292-20.205s.051-14.932.291-20.204c.222-4.875 1.037-7.522 1.722-9.284.907-2.334 1.991-3.999 3.74-5.749 1.75-1.75 3.415-2.833 5.749-3.74 1.762-.685 4.409-1.499 9.284-1.722 5.273-.241 6.854-.292 20.205-.292M50 0C36.421 0 34.718.058 29.385.301c-5.322.243-8.957 1.088-12.137 2.324-3.288 1.278-6.076 2.987-8.856 5.767-2.78 2.78-4.489 5.568-5.767 8.856C1.389 20.429.544 24.063.301 29.385.058 34.718 0 36.421 0 50c0 13.579.058 15.282.301 20.615.243 5.322 1.088 8.957 2.324 12.137 1.278 3.288 2.987 6.076 5.767 8.856 2.78 2.78 5.568 4.489 8.856 5.767 3.181 1.236 6.815 2.081 12.137 2.324 5.333.244 7.036.301 20.615.301s15.282-.057 20.615-.301c5.322-.243 8.957-1.088 12.137-2.324 3.288-1.278 6.076-2.987 8.856-5.767 2.78-2.78 4.489-5.568 5.767-8.856 1.236-3.181 2.081-6.815 2.324-12.137.243-5.333.301-7.036.301-20.615s-.058-15.282-.301-20.615c-.243-5.322-1.088-8.957-2.324-12.137-1.278-3.288-2.987-6.076-5.767-8.856-2.78-2.78-5.568-4.489-8.856-5.767C79.571 1.389 75.937.544 70.615.301 65.282.058 63.579 0 50 0z"/><path d="M50 24.324C35.82 24.324 24.324 35.82 24.324 50S35.82 75.676 50 75.676 75.676 64.18 75.676 50 64.18 24.324 50 24.324zm0 42.343c-9.205 0-16.667-7.462-16.667-16.667 0-9.205 7.462-16.667 16.667-16.667 9.205 0 16.667 7.462 16.667 16.667 0 9.205-7.462 16.667-16.667 16.667z"/><circle cx="76.69" cy="23.31" r="6"/></symbol><symbol viewBox="0 0 100 81.255" id="icon-twitter" xmlns="http://www.w3.org/2000/svg"><path d="M31.448 81.255c37.736 0 58.376-31.264 58.376-58.376 0-.888 0-1.772-.06-2.652A41.743 41.743 0 00100 9.607a40.967 40.967 0 01-11.784 3.228 20.59 20.59 0 009.02-11.348 41.106 41.106 0 01-13.028 4.98c-7.77-8.262-20.767-8.661-29.029-.891a20.536 20.536 0 00-5.935 19.603A58.246 58.246 0 016.96 3.743c-5.446 9.375-2.664 21.367 6.352 27.388A20.36 20.36 0 014 28.563v.26a20.525 20.525 0 0016.46 20.112c-3.021.824-6.19.944-9.264.352a20.54 20.54 0 0019.168 14.248A41.169 41.169 0 010 72.039a58.086 58.086 0 0031.448 9.2"/></symbol></svg>